# xmcd
#
# Track frame offsets:
#	150
#	14889
#	31690
#	45405
#	67267
#	86678
#	112398
#	147193
#	163178
#	176406
#	196551
#	217622
#	237189
#	259710
#	277347
#	291393
#
# Disc length: 4136 seconds
#
# Revision: 0
# Processed by: cddbd v1.5.2PL0 Copyright (c) Steve Scherf et al.
# Submitted via: EasyCDDAExtractor 16.0.9.1
#
DISCID=ef102610
DTITLE=Various Artist -  H2T BDay - Ngay Hanh Phuc
DYEAR=1900
DGENRE=
TTITLE0=Quang Vinh - Banh Kem Ngot 
TTITLE1=Thu Thuy - Candy
TTITLE2=Wanbi Tuan Anh - Rock Vang Trang
TTITLE3=Anh Khang and Thuy Chi - Ngay Yeu
TTITLE4=Dang Khoi - Ho Trai Tim
TTITLE5=Phuong Vy - LK Gian Anh and Dung Buon Phien 
TTITLE6=Yen Trang and Vuong Khang - Ta La Nhan Sac
TTITLE7=Noo Phuoc Thinh - Giac Mo Thien Duong
TTITLE8=Khong Tu Quynh - Nho Lam (Remix)
TTITLE9=Quoc Thien  - Moi Dem Toi Ve
TTITLE10=Bao Thy - Bao Dem Em Khoc
TTITLE11=Thien Minh  - Nhung Dong Thu Voi Trao
TTITLE12=Trinh Thang Binh and Minh Tuan (A#) - Van Bai Hat Ay
TTITLE13=Chi Thien and Hoa Mi - Mot Lan Thoi
TTITLE14=Dai Nhan and Bang Di - Het Yeu (Free)
TTITLE15=Quang Vinh and Luong Bich Huu - Y Nghia Cua Tinh Yeu  
EXTD=
EXTT0=
EXTT1=
EXTT2=
EXTT3=
EXTT4=
EXTT5=
EXTT6=
EXTT7=
EXTT8=
EXTT9=
EXTT10=
EXTT11=
EXTT12=
EXTT13=
EXTT14=
EXTT15=
PLAYORDER=
